<svg width="153" height="24" viewBox="0 0 153 24" fill="none" xmlns="http://www.w3.org/2000/svg">
<path d="M49.9693 4.30885C53.2006 4.30885 53.9187 4.79798 55.1542 6.21334L63.0847 15.3715C63.2008 15.5068 63.2642 15.538 63.3909 15.538V4.30885H66.4532V19.3262H63.1691C61.0572 19.3262 60.1068 19.1597 58.7868 17.6299L50.6029 8.16986C50.5721 8.11722 50.5273 8.07388 50.4733 8.04452C50.4193 8.01517 50.3583 8.00094 50.2966 8.00335V19.3262H47.2343V4.30885H49.9693ZM34.8476 6.4527H42.5563C42.7233 6.4684 42.8912 6.43409 43.0382 6.35425C43.1851 6.27442 43.3042 6.15277 43.3799 6.0052L44.2881 4.30885H33.2108C28.2899 4.30885 25.8928 6.06764 25.8928 9.68929V13.8521C25.8928 17.7131 28.3532 19.347 33.2213 19.347H42.8308C42.9979 19.3627 43.1658 19.3284 43.3127 19.2486C43.4597 19.1687 43.5788 19.0471 43.6545 18.8995L44.5626 17.2032H34.8476C32.2921 17.2032 31.3839 16.3498 31.3839 14.6535V12.572H41.5003C41.6687 12.5883 41.8381 12.5531 41.9854 12.4712C42.1328 12.3893 42.251 12.2646 42.324 12.1141L43.1793 10.4074H31.3311V9.20016C31.3311 7.7744 31.6796 6.4527 34.8476 6.4527ZM78.8717 6.4527H86.5909C86.7579 6.4684 86.9259 6.43409 87.0728 6.35425C87.2198 6.27442 87.3389 6.15277 87.4146 6.0052L88.3227 4.30885H77.2349C72.3034 4.30885 69.9063 6.06764 69.9063 9.68929V13.8521C69.9063 17.7131 72.3773 19.347 77.2349 19.347H86.8443C87.0114 19.3627 87.1793 19.3284 87.3263 19.2486C87.4732 19.1687 87.5923 19.0471 87.668 18.8995L88.5762 17.2032H78.8083C76.2528 17.2032 75.3447 16.3498 75.3447 14.6535V12.572H85.461C85.6307 12.5876 85.8012 12.5521 85.9501 12.4704C86.0989 12.3887 86.2193 12.2645 86.2952 12.1141L87.1928 10.4074H75.3447V9.20016C75.3447 7.7744 75.672 6.4527 78.8189 6.4527H78.8717ZM100.995 14.2476C103.107 14.924 103.719 15.205 103.719 15.9856C103.719 16.7661 103.307 17.1824 100.699 17.1824H91.7864C91.6178 17.1659 91.4482 17.1998 91.2994 17.2796C91.1506 17.3594 91.0296 17.4815 90.9521 17.6299L90.0545 19.3262H102.726C107.858 19.3262 109.77 17.7443 109.77 15.5485C109.77 14.2788 109.041 12.5929 104.236 11.0422L99.1783 9.36667C97.0663 8.69022 96.4644 8.38841 96.4644 7.60788C96.4644 6.99387 96.8234 6.42148 99.4845 6.42148H107.066C107.235 6.43648 107.404 6.40198 107.552 6.32233C107.701 6.24269 107.822 6.12147 107.901 5.97398L108.767 4.30885H97.4887C92.3566 4.30885 90.4347 5.89072 90.4347 8.08661C90.4347 9.35627 91.1739 11.0526 95.9786 12.6033L101.047 14.2476H100.995ZM146.877 11.0422L141.808 9.36667C139.696 8.69022 139.084 8.38841 139.084 7.60788C139.084 6.99387 139.506 6.42148 142.115 6.42148H149.697C149.864 6.43718 150.032 6.40287 150.179 6.32303C150.326 6.2432 150.445 6.12155 150.52 5.97398L151.428 4.27763H140.119C134.987 4.27763 133.065 5.8595 133.065 8.05539C133.065 9.32505 133.794 11.0214 138.609 12.572L143.678 14.2164C145.79 14.8928 146.402 15.1738 146.402 15.9543C146.402 16.7349 145.99 17.1511 143.382 17.1511H133.054L125.071 4.30885H122.04C119.675 4.30885 118.471 4.95409 117.373 6.72329L109.559 19.3262H114.839L121.291 8.08661C121.449 7.81603 121.576 7.81603 121.713 7.81603L127.088 17.1824H121.238C121.071 17.1667 120.903 17.201 120.756 17.2808C120.609 17.3606 120.49 17.4823 120.414 17.6299L119.506 19.3262H145.357C150.489 19.3262 152.4 17.7443 152.4 15.5485C152.4 14.2788 151.671 12.5929 146.856 11.0422H146.877ZM1.05599 11.5938V18.6081H8.20502V11.5938H1.05599ZM23.7069 3.87176C22.4925 -0.728155 9.27156 -1.40461 0.865909 2.78942C0.591353 2.92472 0.190078 3.20571 0.126718 3.55955C0.126718 3.55955 0.0105599 4.26722 0 4.30885C0 4.55862 0.232317 4.50659 0.327356 4.44414C1.41336 3.78188 2.57626 3.25078 3.79099 2.86227C9.11317 1.2804 15.8398 1.22837 17.0436 4.65229C17.8673 7.0459 14.467 9.01283 12.5768 9.90784C11.8482 10.2513 11.5947 10.5635 11.5208 10.9485C11.5072 11.4527 11.6799 11.9445 12.0066 12.3327C14.7838 16.2249 22.672 21.9072 30.4652 23.9365C30.5617 23.9784 30.666 24 30.7715 24C30.8769 24 30.9812 23.9784 31.0777 23.9365C31.1516 23.9365 31.2255 23.8429 31.0777 23.7804C26.1375 21.1474 21.8441 17.4775 18.5009 13.03C18.075 12.5463 17.8324 11.9321 17.8145 11.292C17.8145 10.9069 18.2158 10.5843 18.9444 10.2513C21.7005 8.98161 24.5411 7.06672 23.7069 3.87176Z" fill="#2A289D"/>
</svg>
